<svg xmlns="http://www.w3.org/2000/svg" viewBox="0 0 143.25 24.25">
	<defs><style>
		.cls-1{fill:#1d2027;}.cls-2{fill:#9fa1ad;}
		.c{
			animation: c 7s ease 0s infinite;
			transform-origin: 48.3% 50%;
			transform-box: fill-box;
		}
		@keyframes c{
			20%,40%,60%,80%{
				transform: rotate(0deg);
			}
			27%,33%{
				transform: rotate(-45deg);
			}
			67%,73%{
				transform: rotate(45deg);
			}
		}
	</style></defs>

	<path class="cls-1" d="M50,18.26H47.8V.11H50V1.35A9.15,9.15,0,0,1,55.47.06a9,9,0,0,1,4.59,1.69l.1.07L58.85,3.63l-.1-.07A6.84,6.84,0,0,0,50,4.15Z"/><path class="cls-1" d="M103.57,24.25h-2.24V0h2.24V1.44a9.08,9.08,0,1,1,0,15.33Zm0-10.34a6.83,6.83,0,1,0,4.85-11.64,6.89,6.89,0,0,0-4.85,2Z"/><path class="cls-1" d="M70.9,18.16A9.07,9.07,0,1,1,77.31,2.68l.79.79L78,3.56l-6.3,6.3-.06.06H68.49l6.38-6.39a6.78,6.78,0,0,0-4-1.27,6.84,6.84,0,1,0,0,13.67,6.76,6.76,0,0,0,4.83-2l.09-.08,1.58,1.58-.09.09A9,9,0,0,1,70.9,18.16Z"/><path class="cls-1" d="M90.45,18.16A9.07,9.07,0,1,1,96.87,2.68l.79.79-.09.09-6.3,6.3-.06.06H88.05l6.38-6.39a6.84,6.84,0,1,0-4,12.4,6.74,6.74,0,0,0,4.83-2l.09-.08L97,15.42l-.09.09A9,9,0,0,1,90.45,18.16Z"/><path class="cls-2" d="M6.89,16,0,9.09,6.89,2.21V5.37l-.07.07L3.17,9.09l3.64,3.65.08.08V16Z"/><path class="cls-2" d="M136.36,16V12.74h.08l3.64-3.65-3.65-3.65h-.07V2.21l6.89,6.88-.09.09Z"/><path class="cls-2" d="M15.88,18.18a26.73,26.73,0,0,1-5.63-.77l-.13,0,0-.12.52-2.05.12,0c.42.1,4.13,1,6.3.62s3-1.21,3.12-2.9c.07-1.2-.34-2.63-4.11-3-1.61-.15-3.89-.53-5.12-2.08a4.1,4.1,0,0,1-.8-3.21C10.71.48,14.45.17,16,0a21,21,0,0,1,6.1.63l.12,0-.57,2.17-.12,0a18.75,18.75,0,0,0-5.34-.56c-2.34.19-3.57.66-3.83,2.69a2,2,0,0,0,.32,1.54c.53.66,1.7,1.06,3.59,1.24,2.92.28,6.35,1.43,6.14,5.34-.22,4.17-3.8,4.78-5,5A9.36,9.36,0,0,1,15.88,18.18Z"/><path class="cls-1" d="M126.53,18.18a26.85,26.85,0,0,1-5.63-.77l-.12,0,0-.12.52-2.05.12,0c.17,0,4.07,1,6.29.62s3-1.21,3.13-2.9c.06-1.2-.35-2.63-4.12-3-1.61-.15-3.89-.53-5.12-2.08a4.09,4.09,0,0,1-.8-3.21C121.37.48,125.1.17,126.7,0a20.57,20.57,0,0,1,6.09.63l.13,0-.58,2.17-.12,0a19.22,19.22,0,0,0-5.34-.56c-2.34.19-3.57.66-3.82,2.69a2,2,0,0,0,.32,1.54c.52.66,1.7,1.06,3.58,1.24,2.92.28,6.35,1.43,6.14,5.34-.22,4.17-3.8,4.78-5,5A9.36,9.36,0,0,1,126.53,18.18Z"/>
	
	<g class="c">
		<path class="cls-1" d="M35,18.17A9.07,9.07,0,1,1,42.54,4.06l.13.2H39.81l0,0a6.84,6.84,0,1,0,0,9.76l0,0h2.86l-.13.19A9,9,0,0,1,35,18.17Z"/><path class="cls-2" d="M44.58,10.69H41.33V7.44h3.25Z"/>
	</g>
</svg>